<svg width="12" height="12" viewBox="0 0 12 12" fill="none" xmlns="http://www.w3.org/2000/svg">
<path d="M3.49866 1.95588C3.07263 1.52986 2.38191 1.52986 1.95588 1.95588C1.52986 2.38191 1.52986 3.07263 1.95588 3.49866L3.49866 1.95588ZM10.9091 12C11.5116 12 12 11.5116 12 10.9091V1.09091C12 0.488416 11.5116 0 10.9091 0C10.3066 0 9.81818 0.488416 9.81818 1.09091V9.81818H1.09091C0.488416 9.81818 0 10.3066 0 10.9091C0 11.5116 0.488416 12 1.09091 12H10.9091ZM1.95588 3.49866L10.1377 11.6805L11.6805 10.1377L3.49866 1.95588L1.95588 3.49866Z" fill="white"/>
</svg>
