<svg width="12" height="12" viewBox="0 0 12 12" fill="none" xmlns="http://www.w3.org/2000/svg">
<path d="M5.99833 0.857147C8.83847 0.857147 11.1412 3.15986 11.1412 6C11.1412 8.84015 8.83847 11.1429 5.99833 11.1429C3.15818 11.1429 0.855469 8.84015 0.855469 6C0.855469 3.15986 3.15818 0.857147 5.99833 0.857147ZM5.99833 1.5C3.51304 1.5 1.49833 3.51472 1.49833 6C1.49833 8.48529 3.51304 10.5 5.99833 10.5C8.48361 10.5 10.4983 8.48529 10.4983 6C10.4983 3.51472 8.48361 1.5 5.99833 1.5ZM5.99833 7.92858C6.14041 7.92858 6.27667 7.98502 6.37713 8.08548C6.4776 8.18595 6.53404 8.32221 6.53404 8.46429C6.53404 8.60637 6.4776 8.74263 6.37713 8.8431C6.27667 8.94356 6.14041 9 5.99833 9C5.85625 9 5.71999 8.94356 5.61952 8.8431C5.51905 8.74263 5.46261 8.60637 5.46261 8.46429C5.46261 8.32221 5.51905 8.18595 5.61952 8.08548C5.71999 7.98502 5.85625 7.92858 5.99833 7.92858ZM5.99833 2.89286C6.83961 2.89286 7.60547 3.63215 7.60547 4.5C7.60547 5.11329 7.40618 5.47458 6.9429 5.91686L6.85847 5.99572L6.77104 6.07586C6.42561 6.39215 6.31976 6.558 6.31976 6.85715C6.31976 6.9424 6.28589 7.02415 6.22561 7.08443C6.16533 7.14471 6.08357 7.17858 5.99833 7.17858C5.91308 7.17858 5.83132 7.14471 5.77104 7.08443C5.71076 7.02415 5.6769 6.9424 5.6769 6.85715C5.6769 6.36472 5.84747 6.06772 6.25247 5.68072L6.49676 5.45443C6.8439 5.12358 6.96261 4.90372 6.96261 4.5C6.96261 3.99258 6.48947 3.53572 5.99833 3.53572C5.50718 3.53572 5.03404 3.99258 5.03404 4.5C5.03404 4.58525 5.00018 4.66701 4.9399 4.72729C4.87962 4.78757 4.79786 4.82143 4.71261 4.82143C4.62736 4.82143 4.54561 4.78757 4.48533 4.72729C4.42505 4.66701 4.39118 4.58525 4.39118 4.5C4.39118 3.63215 5.15704 2.89286 5.99833 2.89286Z" fill="white"/>
</svg>
