<svg width="8" height="8" viewBox="0 0 8 8" fill="none" xmlns="http://www.w3.org/2000/svg">
<path d="M4.00084 0.571533C5.89427 0.571533 7.42941 2.10668 7.42941 4.0001C7.42941 5.89353 5.89427 7.42868 4.00084 7.42868C2.10741 7.42868 0.572266 5.89353 0.572266 4.0001C0.572266 2.10668 2.10741 0.571533 4.00084 0.571533ZM4.00084 1.0001C2.34398 1.0001 1.00084 2.34325 1.00084 4.0001C1.00084 5.65696 2.34398 7.0001 4.00084 7.0001C5.65769 7.0001 7.00084 5.65696 7.00084 4.0001C7.00084 2.34325 5.65769 1.0001 4.00084 1.0001ZM4.00084 5.28582C4.09556 5.28582 4.1864 5.32345 4.25338 5.39042C4.32035 5.4574 4.35798 5.54824 4.35798 5.64296C4.35798 5.73768 4.32035 5.82852 4.25338 5.8955C4.1864 5.96248 4.09556 6.0001 4.00084 6.0001C3.90612 6.0001 3.81528 5.96248 3.7483 5.8955C3.68132 5.82852 3.64369 5.73768 3.64369 5.64296C3.64369 5.54824 3.68132 5.4574 3.7483 5.39042C3.81528 5.32345 3.90612 5.28582 4.00084 5.28582ZM4.00084 1.92868C4.56169 1.92868 5.07227 2.42153 5.07227 3.0001C5.07227 3.40896 4.93941 3.64982 4.63055 3.94468L4.57427 3.99725L4.51598 4.05068C4.28569 4.26153 4.21512 4.3721 4.21512 4.57153C4.21512 4.62837 4.19255 4.68287 4.15236 4.72306C4.11217 4.76324 4.05767 4.78582 4.00084 4.78582C3.94401 4.78582 3.8895 4.76324 3.84931 4.72306C3.80913 4.68287 3.78655 4.62837 3.78655 4.57153C3.78655 4.24325 3.90027 4.04525 4.17027 3.78725L4.33312 3.63639C4.56455 3.41582 4.64369 3.26925 4.64369 3.0001C4.64369 2.66182 4.32827 2.35725 4.00084 2.35725C3.67341 2.35725 3.35798 2.66182 3.35798 3.0001C3.35798 3.05694 3.3354 3.11144 3.29522 3.15163C3.25503 3.19181 3.20053 3.21439 3.14369 3.21439C3.08686 3.21439 3.03236 3.19181 2.99217 3.15163C2.95199 3.11144 2.92941 3.05694 2.92941 3.0001C2.92941 2.42153 3.43998 1.92868 4.00084 1.92868Z" fill="#B5B5B8"/>
</svg>
