<svg width="10" height="10" viewBox="0 0 10 10" fill="none" xmlns="http://www.w3.org/2000/svg">
<path d="M5.00056 0.714355C7.36734 0.714355 9.28627 2.63328 9.28627 5.00007C9.28627 7.36686 7.36734 9.28578 5.00056 9.28578C2.63377 9.28578 0.714844 7.36686 0.714844 5.00007C0.714844 2.63328 2.63377 0.714355 5.00056 0.714355ZM5.00056 1.25007C2.92949 1.25007 1.25056 2.929 1.25056 5.00007C1.25056 7.07114 2.92949 8.75007 5.00056 8.75007C7.07163 8.75007 8.75056 7.07114 8.75056 5.00007C8.75056 2.929 7.07163 1.25007 5.00056 1.25007ZM5.00056 6.60721C5.11896 6.60721 5.23251 6.65425 5.31623 6.73797C5.39995 6.82169 5.44699 6.93524 5.44699 7.05364C5.44699 7.17204 5.39995 7.28559 5.31623 7.36931C5.23251 7.45304 5.11896 7.50007 5.00056 7.50007C4.88216 7.50007 4.76861 7.45304 4.68489 7.36931C4.60116 7.28559 4.55413 7.17204 4.55413 7.05364C4.55413 6.93524 4.60116 6.82169 4.68489 6.73797C4.76861 6.65425 4.88216 6.60721 5.00056 6.60721ZM5.00056 2.41078C5.70163 2.41078 6.33984 3.02686 6.33984 3.75007C6.33984 4.26114 6.17377 4.56221 5.7877 4.93078L5.71734 4.9965L5.64449 5.06328C5.35663 5.32686 5.26842 5.46507 5.26842 5.71436C5.26842 5.7854 5.24019 5.85353 5.18996 5.90376C5.13973 5.95399 5.0716 5.98221 5.00056 5.98221C4.92952 5.98221 4.86139 5.95399 4.81115 5.90376C4.76092 5.85353 4.7327 5.7854 4.7327 5.71436C4.7327 5.304 4.87484 5.0565 5.21234 4.734L5.41592 4.54543C5.7052 4.26971 5.80413 4.0865 5.80413 3.75007C5.80413 3.32721 5.40984 2.9465 5.00056 2.9465C4.59127 2.9465 4.19699 3.32721 4.19699 3.75007C4.19699 3.82111 4.16877 3.88924 4.11853 3.93947C4.0683 3.98971 4.00017 4.01793 3.92913 4.01793C3.85809 4.01793 3.78996 3.98971 3.73973 3.93947C3.68949 3.88924 3.66127 3.82111 3.66127 3.75007C3.66127 3.02686 4.29949 2.41078 5.00056 2.41078Z" fill="#4C4C5B"/>
</svg>
